<svg version="1.1" id="Layer_1" xmlns="http://www.w3.org/2000/svg" xmlns:xlink="http://www.w3.org/1999/xlink" x="0px" y="0px"
	 width="100%" viewBox="0 0 2048 2048" enable-background="new 0 0 2048 2048" xml:space="preserve">
<path fill="#DDD1FF" opacity="1.000000" stroke="none" 
	d="
M1336.000000,2049.000000 
	C890.666687,2049.000000 445.833344,2049.000000 1.000000,2049.000000 
	C1.000000,1366.333374 1.000000,683.666687 1.000000,1.000000 
	C683.666687,1.000000 1366.333374,1.000000 2049.000000,1.000000 
	C2049.000000,683.666687 2049.000000,1366.333374 2049.000000,2049.000000 
	C1811.500000,2049.000000 1574.000000,2049.000000 1336.000000,2049.000000 
M1031.590454,428.626038 
	C1022.424988,426.437469 1014.187683,429.107239 1006.176636,433.321991 
	C859.064270,510.720917 711.973999,588.162170 564.766296,665.379395 
	C550.561890,672.830261 544.005127,682.786926 544.056946,699.570251 
	C544.540710,856.398499 544.324768,1013.228821 544.409851,1170.058594 
	C544.412598,1175.178101 544.699463,1180.527954 546.158997,1185.377563 
	C553.530884,1209.873535 560.440308,1234.564453 569.168518,1258.585083 
	C589.353027,1314.134033 619.146790,1364.005127 660.004639,1407.038696 
	C689.170227,1437.757324 719.581421,1467.165283 751.352722,1495.178833 
	C800.576477,1538.580811 852.936096,1577.673218 909.771118,1610.618896 
	C939.531372,1627.870117 970.393127,1642.592651 1004.067444,1650.588013 
	C1013.414001,1652.807129 1022.706543,1655.365356 1032.612549,1653.470459 
	C1050.979370,1649.957153 1068.791870,1644.688721 1086.061523,1637.590210 
	C1126.953125,1620.782104 1164.117554,1597.368408 1200.330444,1572.393799 
	C1269.066895,1524.988403 1330.622070,1469.266235 1388.147949,1408.961304 
	C1405.654907,1390.608521 1421.583984,1370.932129 1435.466064,1349.673584 
	C1464.297852,1305.522095 1483.699951,1257.205811 1498.077881,1206.726562 
	C1501.529419,1194.608521 1505.719360,1182.650391 1505.709229,1169.725952 
	C1505.622192,1059.061768 1505.656006,948.397644 1505.654175,837.733521 
	C1505.653442,791.567932 1505.564209,745.402039 1505.704346,699.236816 
	C1505.751587,683.701599 1499.779419,672.918335 1485.414673,665.397461 
	C1338.147705,588.293945 1191.089111,510.792419 1043.940308,433.463074 
	C1040.289429,431.544464 1036.270142,430.326782 1031.590454,428.626038 
z"/>
<path fill="#4811FF" opacity="1.000000" stroke="none" 
	d="
M1032.006592,428.704102 
	C1036.270142,430.326782 1040.289429,431.544464 1043.940308,433.463074 
	C1191.089111,510.792419 1338.147705,588.293945 1485.414673,665.397461 
	C1499.779419,672.918335 1505.751587,683.701599 1505.704346,699.236816 
	C1505.564209,745.402039 1505.653442,791.567932 1505.654175,837.733521 
	C1505.656006,948.397644 1505.622192,1059.061768 1505.709229,1169.725952 
	C1505.719360,1182.650391 1501.529419,1194.608521 1498.077881,1206.726562 
	C1483.699951,1257.205811 1464.297852,1305.522095 1435.466064,1349.673584 
	C1421.583984,1370.932129 1405.654907,1390.608521 1388.147949,1408.961304 
	C1330.622070,1469.266235 1269.066895,1524.988403 1200.330444,1572.393799 
	C1164.117554,1597.368408 1126.953125,1620.782104 1086.061523,1637.590210 
	C1068.791870,1644.688721 1050.979370,1649.957153 1032.612549,1653.470459 
	C1022.706543,1655.365356 1013.414001,1652.807129 1004.067444,1650.588013 
	C970.393127,1642.592651 939.531372,1627.870117 909.771118,1610.618896 
	C852.936096,1577.673218 800.576477,1538.580811 751.352722,1495.178833 
	C719.581421,1467.165283 689.170227,1437.757324 660.004639,1407.038696 
	C619.146790,1364.005127 589.353027,1314.134033 569.168518,1258.585083 
	C560.440308,1234.564453 553.530884,1209.873535 546.158997,1185.377563 
	C544.699463,1180.527954 544.412598,1175.178101 544.409851,1170.058594 
	C544.324768,1013.228821 544.540710,856.398499 544.056946,699.570251 
	C544.005127,682.786926 550.561890,672.830261 564.766296,665.379395 
	C711.973999,588.162170 859.064270,510.720917 1006.176636,433.321991 
	C1014.187683,429.107239 1022.424988,426.437469 1032.006592,428.704102 
M820.223450,681.731812 
	C771.200134,707.517212 722.226868,733.398865 673.079834,758.946289 
	C667.880188,761.649170 666.173157,764.598755 666.181335,770.354919 
	C666.351990,890.839966 666.381836,1011.325378 666.201111,1131.810425 
	C666.182922,1143.922852 667.651062,1155.546875 671.001160,1167.184082 
	C687.234802,1223.574585 711.499512,1275.480103 752.725525,1318.410400 
	C807.725952,1375.684692 866.827454,1427.975342 934.650940,1469.791260 
	C960.332825,1485.625122 986.671082,1500.168823 1016.333496,1507.317993 
	C1020.573303,1508.340088 1025.340088,1509.018799 1029.516357,1508.163330 
	C1057.097290,1502.514038 1081.744873,1489.778442 1105.719971,1475.590942 
	C1161.484619,1442.591675 1211.514038,1402.173828 1258.208130,1357.465698 
	C1279.756104,1336.834229 1301.128662,1316.027466 1319.457764,1292.364990 
	C1346.242676,1257.786133 1363.307983,1218.416626 1375.916260,1176.930786 
	C1379.090332,1166.486938 1383.308594,1155.706055 1383.352417,1145.064819 
	C1383.870605,1019.248962 1383.671997,893.430237 1383.760498,767.612366 
	C1383.763062,763.952209 1382.563599,761.949890 1379.334961,760.254883 
	C1262.843506,699.099976 1146.385010,637.881897 1029.988403,576.546753 
	C1026.319092,574.613220 1023.671570,574.612732 1020.006042,576.548462 
	C953.673157,611.577820 887.256775,646.448914 820.223450,681.731812 
z"/>
<path fill="#DDD1FF" opacity="1.000000" stroke="none" 
	d="
M820.540833,681.542847 
	C887.256775,646.448914 953.673157,611.577820 1020.006042,576.548462 
	C1023.671570,574.612732 1026.319092,574.613220 1029.988403,576.546753 
	C1146.385010,637.881897 1262.843506,699.099976 1379.334961,760.254883 
	C1382.563599,761.949890 1383.763062,763.952209 1383.760498,767.612366 
	C1383.671997,893.430237 1383.870605,1019.248962 1383.352417,1145.064819 
	C1383.308594,1155.706055 1379.090332,1166.486938 1375.916260,1176.930786 
	C1363.307983,1218.416626 1346.242676,1257.786133 1319.457764,1292.364990 
	C1301.128662,1316.027466 1279.756104,1336.834229 1258.208130,1357.465698 
	C1211.514038,1402.173828 1161.484619,1442.591675 1105.719971,1475.590942 
	C1081.744873,1489.778442 1057.097290,1502.514038 1029.516357,1508.163330 
	C1025.340088,1509.018799 1020.573303,1508.340088 1016.333496,1507.317993 
	C986.671082,1500.168823 960.332825,1485.625122 934.650940,1469.791260 
	C866.827454,1427.975342 807.725952,1375.684692 752.725525,1318.410400 
	C711.499512,1275.480103 687.234802,1223.574585 671.001160,1167.184082 
	C667.651062,1155.546875 666.182922,1143.922852 666.201111,1131.810425 
	C666.381836,1011.325378 666.351990,890.839966 666.181335,770.354919 
	C666.173157,764.598755 667.880188,761.649170 673.079834,758.946289 
	C722.226868,733.398865 771.200134,707.517212 820.540833,681.542847 
M891.599121,1147.893555 
	C899.707520,1157.168091 907.802673,1166.454468 915.926941,1175.715088 
	C936.348572,1198.993042 956.780884,1222.261841 977.213989,1245.529785 
	C985.893860,1255.413818 994.525391,1265.341187 1003.294983,1275.145020 
	C1009.286316,1281.842896 1016.588135,1286.419922 1025.868408,1285.948242 
	C1034.386475,1285.515625 1041.316284,1281.384888 1046.922852,1274.960571 
	C1060.279907,1259.655396 1073.679443,1244.387451 1087.074707,1229.115723 
	C1109.798096,1203.208984 1132.152222,1176.965820 1155.354492,1151.495117 
	C1185.539673,1118.358887 1203.093262,1079.827759 1205.693237,1035.151489 
	C1206.553345,1020.372314 1205.322754,1005.109863 1202.537109,990.548706 
	C1194.453247,948.292542 1173.699463,912.945435 1140.234375,885.665588 
	C1096.344238,849.887573 1046.051392,837.023499 990.553894,847.393188 
	C945.311035,855.846802 908.215698,879.060486 880.703003,915.972961 
	C848.545044,959.117981 837.249756,1007.568665 847.657532,1060.725342 
	C854.105408,1093.657227 869.045898,1122.294312 891.599121,1147.893555 
z"/>
<path fill="#4811FF" opacity="1.000000" stroke="none" 
	d="
M891.361511,1147.630615 
	C869.045898,1122.294312 854.105408,1093.657227 847.657532,1060.725342 
	C837.249756,1007.568665 848.545044,959.117981 880.703003,915.972961 
	C908.215698,879.060486 945.311035,855.846802 990.553894,847.393188 
	C1046.051392,837.023499 1096.344238,849.887573 1140.234375,885.665588 
	C1173.699463,912.945435 1194.453247,948.292542 1202.537109,990.548706 
	C1205.322754,1005.109863 1206.553345,1020.372314 1205.693237,1035.151489 
	C1203.093262,1079.827759 1185.539673,1118.358887 1155.354492,1151.495117 
	C1132.152222,1176.965820 1109.798096,1203.208984 1087.074707,1229.115723 
	C1073.679443,1244.387451 1060.279907,1259.655396 1046.922852,1274.960571 
	C1041.316284,1281.384888 1034.386475,1285.515625 1025.868408,1285.948242 
	C1016.588135,1286.419922 1009.286316,1281.842896 1003.294983,1275.145020 
	C994.525391,1265.341187 985.893860,1255.413818 977.213989,1245.529785 
	C956.780884,1222.261841 936.348572,1198.993042 915.926941,1175.715088 
	C907.802673,1166.454468 899.707520,1157.168091 891.361511,1147.630615 
z"/>
</svg>